<?xml version="1.0" standalone="no"?><!DOCTYPE svg PUBLIC "-//W3C//DTD SVG 1.1//EN" "http://www.w3.org/Graphics/SVG/1.1/DTD/svg11.dtd"><svg t="1639980331244" class="icon" viewBox="0 0 1024 1024" version="1.1" xmlns="http://www.w3.org/2000/svg" p-id="3411" xmlns:xlink="http://www.w3.org/1999/xlink" width="200" height="200"><defs><style type="text/css"></style></defs><path d="M1024 365.723826V0H658.276174l144.027826 144.005565-157.050435 157.028174a400.695652 400.695652 0 0 0-242.977391-81.608348C180.112696 219.425391 0 399.538087 0 621.746087 0 843.887304 180.112696 1024 402.276174 1024c222.163478 0 402.298435-180.112696 402.298435-402.276174a400.695652 400.695652 0 0 0-81.608348-242.977391l157.028174-157.028174L1024 365.723826zM609.146435 828.549565a290.459826 290.459826 0 0 1-206.870261 85.704348 290.459826 290.459826 0 0 1-206.848-85.704348 290.459826 290.459826 0 0 1-85.704348-206.848c0-78.180174 30.386087-151.552 85.704348-206.870261a290.459826 290.459826 0 0 1 206.848-85.704347c78.180174 0 151.552 30.386087 206.870261 85.704347a290.459826 290.459826 0 0 1 85.704348 206.870261c0 78.157913-30.386087 151.529739-85.704348 206.848z" p-id="3412"></path></svg>